<svg viewBox="0 0 256 256" fill="none" xmlns="http://www.w3.org/2000/svg">
<path d="M89.5996 64.0016C89.5996 42.7936 106.44 25.6016 128 25.6016C149.2 25.6016 166.4 42.7936 166.4 64.0016V65.4256C166.4 71.7216 161.32 76.8016 155.04 76.8016H100.96C94.6796 76.8016 89.5996 71.7216 89.5996 65.4256V64.0016ZM102.4 64.0016H153.6C153.6 49.8616 142.12 38.4016 128 38.4016C113.88 38.4016 102.4 49.8616 102.4 64.0016ZM40.2756 65.8816C42.7716 63.3776 46.8276 63.3776 49.3236 65.8816L81.0396 97.6016C87.9196 92.5616 96.4396 89.6016 105.6 89.6016H150.4C159.56 89.6016 168.08 92.5616 174.96 97.6016L206.68 65.8816C209.16 63.3776 213.24 63.3776 215.72 65.8816C218.24 68.3616 218.24 72.4416 215.72 74.9216L183.64 106.642C189.04 113.522 192 122.042 192 131.202V134.402H224C227.52 134.402 230.4 137.282 230.4 140.802C230.4 144.322 227.52 147.202 224 147.202H192V153.602C192 165.682 188.64 176.962 182.84 186.602L215.72 219.482C218.24 221.962 218.24 226.042 215.72 228.522C213.24 231.042 209.16 231.042 206.68 228.522L175.08 196.962C163.4 209.642 146.64 217.602 128 217.602C109.36 217.602 92.5996 209.642 80.9196 196.962L49.3236 228.522C46.8276 231.042 42.7756 231.042 40.2756 228.522C37.7756 226.042 37.7756 221.962 40.2756 219.482L73.1596 186.602C67.3596 176.962 63.9996 165.682 63.9996 153.242V146.842H31.9996C28.4652 146.842 25.5996 144.322 25.5996 140.442C25.5996 137.282 28.4652 134.042 31.9996 134.042H63.9996V130.842C63.9996 122.042 66.9596 113.522 71.9996 106.642L40.2756 74.9216C37.7756 72.4416 37.7756 68.3616 40.2756 65.8816ZM76.7996 153.602C76.7996 179.722 96.3596 201.242 121.6 204.402V128.002C121.6 124.482 124.48 121.602 128 121.602C131.52 121.602 134.4 124.482 134.4 128.002V204.402C159.64 201.242 179.2 179.722 179.2 153.602V131.202C179.2 115.282 166.32 102.402 150.4 102.402H105.6C89.6796 102.402 76.7996 115.282 76.7996 131.202V153.602Z" fill="currentColor"/>
</svg>
